<svg xmlns="http://www.w3.org/2000/svg" width="300" height="51.8" baseProfile="tiny" viewBox="0 0 300 51.81"><path fill="#0A2869" d="M131.8 51.8L116 33.3 95 51.8H80V0h16.5v30.3L132.2 0h20l-24.7 23.7 23 25v3"/><path fill="#00A1E0" d="M57 17c1 0 2-.7 2-1.8 0-1-1-2-2-2H18.3c-3.7 0-6.7-1-6.7-6.6s3-6.6 6.7-6.6h46c5.2 0 9.4 4.2 9.4 9.4v42.4h-60C6 51.8 0 49 0 34.4S6 17 13.6 17H57zM19 30.3c-2.2 0-4 .3-4 4.2 0 4 1.8 4.2 4 4.2h38.5v-8.4H19zM155.8 51.8V0h55c11.7 0 15 11.6 15 26 0 14.2-3.3 25.8-15 25.8h-55zm46.8-13.3c6 0 7.2-5.2 7.2-12.6 0-7.5-1.2-12.8-7.2-12.8H171v25.3h31.6zM290.7 20.4c2.4-2 4-5.4 4-9C294.7 5 290 0 284.4 0h-55v51.7h56.8c7.6 0 13.8-4 13.8-16 0-7-4-13-9.3-15.3zm-47.4-9.2H278c2 0 3.8 1.6 3.8 3.5 0 2-1.7 3.5-3.8 3.5h-34.7v-7zM284 39h-40.7v-9H284c2.3 0 4.3 2 4.3 4.5s-2 4.4-4.4 4.4z"/></svg>