<?xml version="1.0" encoding="UTF-8" standalone="no"?>
<!DOCTYPE svg PUBLIC "-//W3C//DTD SVG 1.1//EN" "http://www.w3.org/Graphics/SVG/1.1/DTD/svg11.dtd">
<svg width="100%" height="100%" viewBox="0 0 671 192" version="1.1" xmlns="http://www.w3.org/2000/svg" xmlns:xlink="http://www.w3.org/1999/xlink" xml:space="preserve" xmlns:serif="http://www.serif.com/" style="fill-rule:evenodd;clip-rule:evenodd;stroke-linejoin:round;stroke-miterlimit:1.41421;">
    <g transform="matrix(4.16667,0,0,4.16667,0,0)">
        <path d="M5.337,5.06L4.824,8.306L6.571,8.306C8.336,8.306 9,7.984 9.209,6.712C9.418,5.459 8.849,5.06 7.254,5.06L5.337,5.06ZM4.445,10.754L3.932,14.02L6.267,14.02C7.786,14.02 8.431,13.64 8.64,12.444C8.83,11.172 8.26,10.754 6.779,10.754L4.445,10.754ZM12.873,6.124C12.512,8.306 11.753,9.237 9.968,9.521L9.949,9.578C11.942,9.768 12.455,10.774 12.094,12.976C11.62,16.032 9.949,17.076 6.096,17.076C4.312,17.076 2.091,17 0.25,16.848C0.041,16.829 -0.015,16.772 0.003,16.583L2.243,2.498C2.262,2.308 2.338,2.251 2.565,2.232C4.464,2.081 6.324,2.004 8.108,2.004C12.019,2.004 13.347,3.105 12.873,6.124Z" style="fill:rgb(35,31,32);fill-rule:nonzero;"/>
        <path d="M24.655,6.218C24.845,6.218 24.902,6.313 24.864,6.522L23.308,16.412C23.27,16.659 23.194,16.696 22.985,16.734C21.751,16.962 19.777,17.076 18.088,17.076C14.329,17.076 13.551,16.259 14.158,12.444L15.088,6.522C15.127,6.313 15.259,6.218 15.449,6.218L18.183,6.218C18.373,6.218 18.448,6.313 18.41,6.522L17.632,11.438C17.214,14.077 17.348,14.229 19.056,14.229L20.328,14.229L21.543,6.522C21.581,6.313 21.694,6.218 21.884,6.218L24.655,6.218Z" style="fill:rgb(35,31,32);fill-rule:nonzero;"/>
        <path d="M33.611,6.351C33.82,6.389 33.915,6.484 33.877,6.75L33.554,8.686C33.535,8.876 33.402,8.97 33.193,8.97L31.314,8.97C30.498,8.97 30.137,9.103 30.004,9.92L28.941,16.677C28.903,16.886 28.79,16.981 28.6,16.981L25.847,16.981C25.657,16.981 25.582,16.886 25.62,16.677L26.835,9.028C27.233,6.503 28.903,6.124 30.935,6.124C31.523,6.124 32.833,6.18 33.611,6.351Z" style="fill:rgb(35,31,32);fill-rule:nonzero;"/>
        <path d="M38.903,2.118C39.093,2.118 39.169,2.232 39.15,2.421L37.974,9.863L41.029,6.408C41.144,6.295 41.295,6.218 41.466,6.218L44.503,6.218C44.845,6.218 44.807,6.37 44.617,6.579L41.106,10.47L43.744,16.468C43.839,16.715 43.858,16.981 43.345,16.981L40.441,16.981C40.251,16.981 40.118,16.905 40.062,16.772L37.746,11.21L36.892,16.677C36.854,16.886 36.74,16.981 36.55,16.981L33.816,16.981C33.627,16.981 33.551,16.886 33.588,16.677L35.829,2.421C35.848,2.232 35.961,2.118 36.151,2.118L38.903,2.118Z" style="fill:rgb(35,31,32);fill-rule:nonzero;"/>
        <path d="M50.099,2.118C50.289,2.118 50.365,2.232 50.346,2.421L49.738,6.218C50.327,6.162 51.048,6.124 51.561,6.124C55.319,6.124 56.078,6.94 55.49,10.736L54.541,16.677C54.502,16.886 54.389,16.981 54.199,16.981L51.446,16.981C51.257,16.981 51.2,16.886 51.238,16.677L52.016,11.761C52.415,9.123 52.301,8.97 50.592,8.97L49.32,8.97L48.087,16.677C48.068,16.886 47.954,16.981 47.764,16.981L44.993,16.981C44.803,16.981 44.727,16.886 44.765,16.677L47.024,2.421C47.043,2.232 47.157,2.118 47.347,2.118L50.099,2.118Z" style="fill:rgb(35,31,32);fill-rule:nonzero;"/>
        <path d="M61.446,12.463C60.497,12.463 60.193,12.786 60.098,13.451C59.984,14.21 60.25,14.419 61.275,14.419C61.56,14.419 62.433,14.38 62.927,14.266L63.211,12.463L61.446,12.463ZM66.989,9.54L65.964,16.07C65.888,16.45 65.736,16.601 65.413,16.677C63.686,17.019 61.997,17.076 60.971,17.076C57.953,17.076 56.321,16.867 56.776,13.678C57.251,10.983 58.732,10.489 61.446,10.489L63.534,10.47L63.591,10.09C63.705,9.294 63.268,8.97 62.319,8.97L58.599,8.97C58.409,8.97 58.352,8.857 58.39,8.629L58.693,6.75C58.732,6.522 58.808,6.484 58.997,6.446C60.231,6.2 61.408,6.124 62.774,6.124C66.932,6.124 67.312,7.509 66.989,9.54Z" style="fill:rgb(35,31,32);fill-rule:nonzero;"/>
        <path d="M73.533,2.118C73.723,2.118 73.799,2.232 73.78,2.421L71.522,16.677C71.483,16.886 71.37,16.981 71.18,16.981L68.446,16.981C68.256,16.981 68.181,16.886 68.199,16.677L70.459,2.421C70.478,2.232 70.591,2.118 70.781,2.118L73.533,2.118Z" style="fill:rgb(35,31,32);fill-rule:nonzero;"/>
        <path d="M79.644,3.257C79.853,3.2 79.928,3.352 79.89,3.561L79.454,6.295L81.086,6.295C81.314,6.295 81.409,6.389 81.39,6.579L81.086,8.421C81.048,8.629 80.916,8.724 80.707,8.724L79.074,8.724L78.353,13.28C78.22,14.096 78.523,14.229 79.283,14.229L79.985,14.229C80.213,14.229 80.308,14.324 80.289,14.513L79.985,16.488C79.928,16.734 79.795,16.829 79.586,16.867C78.752,17.019 78.182,17.076 77.669,17.076C75.885,17.076 74.442,17 74.86,14.475L75.752,8.724L74.632,8.724C74.423,8.724 74.329,8.629 74.367,8.421L74.651,6.579C74.67,6.389 74.803,6.295 75.031,6.295L76.151,6.295L76.455,4.282C76.493,4.073 76.587,4.036 76.796,3.978L79.644,3.257Z" style="fill:rgb(35,31,32);fill-rule:nonzero;"/>
        <path d="M85.602,10.641L88.79,10.641C88.981,9.35 88.6,8.97 87.5,8.97C86.379,8.97 85.811,9.35 85.602,10.641ZM91.96,11.552L91.865,12.14C91.809,12.54 91.656,12.653 91.238,12.653L85.316,12.653C85.107,14.058 85.544,14.229 87.025,14.229L90.498,14.229C90.689,14.229 90.764,14.324 90.745,14.513L90.441,16.45C90.403,16.677 90.289,16.734 90.119,16.772C89.037,17 87.519,17.076 86.209,17.076C82.241,17.076 81.387,15.994 82.09,11.609C82.773,7.206 83.988,6.124 87.955,6.124C91.865,6.124 92.644,7.206 91.96,11.552Z" style="fill:rgb(35,31,32);fill-rule:nonzero;"/>
        <path d="M101.01,6.351C101.219,6.389 101.315,6.484 101.276,6.75L100.954,8.686C100.935,8.876 100.802,8.97 100.593,8.97L98.713,8.97C97.898,8.97 97.537,9.103 97.404,9.92L96.341,16.677C96.303,16.886 96.19,16.981 95.999,16.981L93.246,16.981C93.057,16.981 92.981,16.886 93.02,16.677L94.234,9.028C94.633,6.503 96.303,6.124 98.334,6.124C98.922,6.124 100.233,6.18 101.01,6.351Z" style="fill:rgb(35,31,32);fill-rule:nonzero;"/>
        <path d="M111.346,23.69C114.849,21.167 124.627,14.655 124.627,14.655C120.048,5.778 106.831,2.604 106.831,2.604C115.675,4.025 129.785,7.862 144.641,12.117C153.492,14.655 159.064,17.07 159.064,17.07C115.813,17.07 86.725,46 86.725,46C86.725,46 100.227,31.72 111.346,23.69Z" style="fill:rgb(35,31,32);fill-rule:nonzero;"/>
        <path d="M160.273,15.127C160.273,15.127 154.272,12.095 143.409,8.758C127.069,3.738 104.376,0.662 104.376,0.662C104.376,0.662 122.198,4.277 125.817,12.719C125.817,12.719 116.064,19.225 112.545,21.751C101.415,29.762 87.919,44.044 87.919,44.044C87.919,44.044 117.004,15.127 160.273,15.127Z" style="fill:rgb(255,242,0);fill-rule:nonzero;"/>
        <path d="M79.306,19.135C79.391,19.149 79.426,19.192 79.412,19.283L79.341,19.726C79.327,19.803 79.292,19.838 79.222,19.838L77.766,19.838C76.669,19.838 76.408,20.282 76.169,21.78C75.937,23.279 76.056,23.714 77.154,23.714L78.131,23.714L78.42,21.928C78.427,21.858 78.469,21.815 78.54,21.815L79.172,21.815C79.243,21.815 79.271,21.858 79.264,21.928L78.94,23.975C78.919,24.066 78.912,24.094 78.884,24.129C78.687,24.439 77.759,24.502 77.027,24.502C75.275,24.502 74.931,23.883 75.261,21.78C75.592,19.669 76.134,19.051 77.892,19.051C78.336,19.051 78.968,19.072 79.306,19.135Z" style="fill:rgb(35,31,32);fill-rule:nonzero;"/>
        <path d="M82.54,20.62C82.604,20.641 82.639,20.669 82.625,20.747L82.555,21.175C82.547,21.252 82.498,21.288 82.428,21.281L81.787,21.281C81.365,21.281 81.225,21.351 81.175,21.661L80.746,24.362C80.739,24.432 80.697,24.467 80.627,24.467L79.987,24.467C79.916,24.467 79.888,24.432 79.895,24.362L80.359,21.443C80.493,20.605 81.169,20.543 81.695,20.543C81.879,20.543 82.357,20.563 82.54,20.62Z" style="fill:rgb(35,31,32);fill-rule:nonzero;"/>
        <path d="M83.703,22.526C83.541,23.518 83.612,23.764 84.365,23.764C85.117,23.764 85.258,23.518 85.42,22.526C85.582,21.527 85.512,21.281 84.759,21.281C84.006,21.281 83.865,21.527 83.703,22.526ZM86.272,22.526C86.025,24.109 85.652,24.502 84.245,24.502C82.838,24.502 82.6,24.109 82.846,22.526C83.099,20.936 83.471,20.543 84.879,20.543C86.285,20.543 86.524,20.936 86.272,22.526Z" style="fill:rgb(35,31,32);fill-rule:nonzero;"/>
        <path d="M90.819,20.578C90.89,20.578 90.918,20.605 90.904,20.683L90.334,24.27C90.32,24.362 90.285,24.369 90.215,24.383C89.68,24.489 89.047,24.502 88.625,24.502C87.323,24.502 86.992,24.298 87.225,22.829L87.563,20.683C87.576,20.605 87.626,20.578 87.696,20.578L88.329,20.578C88.4,20.578 88.428,20.613 88.421,20.683L88.098,22.673C87.936,23.714 88.09,23.764 88.752,23.764L89.561,23.764L90.046,20.683C90.06,20.605 90.102,20.578 90.172,20.578L90.819,20.578Z" style="fill:rgb(35,31,32);fill-rule:nonzero;"/>
        <path d="M92.815,21.281L92.428,23.714C92.668,23.743 92.955,23.756 93.188,23.756C93.976,23.756 94.116,23.525 94.278,22.519C94.434,21.555 94.404,21.281 93.624,21.281L92.815,21.281ZM95.137,22.491C94.883,24.087 94.504,24.502 93.202,24.502C92.879,24.502 92.611,24.496 92.315,24.46L92.105,25.761C92.098,25.839 92.055,25.875 91.984,25.875L91.345,25.875C91.274,25.875 91.246,25.839 91.254,25.761L92.041,20.809C92.055,20.725 92.105,20.683 92.19,20.669C92.809,20.57 93.209,20.543 93.709,20.543C95.137,20.543 95.383,20.95 95.137,22.491Z" style="fill:rgb(35,31,32);fill-rule:nonzero;"/>
    </g>
</svg>
