<?xml version="1.0" encoding="UTF-8" standalone="no"?>
<!DOCTYPE svg PUBLIC "-//W3C//DTD SVG 1.1//EN" "http://www.w3.org/Graphics/SVG/1.1/DTD/svg11.dtd">
<svg width="100%" height="100%" viewBox="0 0 1746 646" version="1.1" xmlns="http://www.w3.org/2000/svg" xmlns:xlink="http://www.w3.org/1999/xlink" xml:space="preserve" xmlns:serif="http://www.serif.com/" style="fill-rule:evenodd;clip-rule:evenodd;stroke-linejoin:round;stroke-miterlimit:2;">
    <g transform="matrix(4.16667,0,0,4.16667,0,0)">
        <path d="M160.982,59.622C161.75,59.454 162.69,59.327 163.8,59.242C164.91,59.158 165.893,59.116 166.747,59.116C167.856,59.116 168.977,59.158 170.109,59.242C171.239,59.327 172.146,59.454 172.83,59.622L164.889,74.813L173.727,92.219C172.958,92.388 171.997,92.514 170.845,92.599C169.693,92.684 168.688,92.726 167.835,92.726C166.724,92.726 165.625,92.684 164.536,92.599C163.449,92.514 162.583,92.388 161.943,92.219L153.425,75.255L160.982,59.622ZM141.577,59.622C142.517,59.411 143.445,59.263 144.362,59.178C145.279,59.094 146.166,59.052 147.02,59.052C147.83,59.052 148.708,59.094 149.646,59.178C150.585,59.263 151.503,59.411 152.401,59.622L152.401,92.219C151.289,92.431 150.288,92.567 149.39,92.631C148.493,92.694 147.702,92.726 147.02,92.726C146.294,92.726 145.482,92.694 144.588,92.631C143.69,92.567 142.687,92.431 141.577,92.219L141.577,59.622Z" style="fill:rgb(8,67,97);fill-rule:nonzero;"/>
        <path d="M191.724,85.193C192.108,85.193 192.662,85.151 193.388,85.066C194.114,84.983 194.647,84.898 194.989,84.813L194.989,77.851L191.339,77.851C189.843,77.851 188.586,78.168 187.56,78.8C186.536,79.433 186.024,80.32 186.024,81.46C186.024,82.303 186.215,82.968 186.599,83.454C186.985,83.939 187.465,84.307 188.042,84.56C188.617,84.813 189.236,84.983 189.899,85.066C190.56,85.151 191.167,85.193 191.724,85.193ZM176.61,81.649C176.61,79.583 177.057,77.874 177.953,76.522C178.851,75.171 180.003,74.095 181.412,73.294C182.822,72.492 184.379,71.933 186.087,71.616C187.795,71.299 189.459,71.142 191.083,71.142L194.989,71.142C194.947,70.381 194.733,69.75 194.349,69.243C193.965,68.736 193.474,68.347 192.876,68.071C192.278,67.797 191.617,67.608 190.891,67.502C190.165,67.397 189.417,67.343 188.649,67.343C187.625,67.343 186.429,67.46 185.063,67.692C183.697,67.924 182.287,68.294 180.836,68.799C180.452,68.083 180.12,67.428 179.843,66.837C179.565,66.247 179.352,65.646 179.203,65.034C179.052,64.421 178.947,63.79 178.882,63.134C178.818,62.481 178.786,61.732 178.786,60.887C180.836,60.212 182.875,59.707 184.902,59.369C186.93,59.031 188.756,58.861 190.378,58.861C192.599,58.861 194.605,59.126 196.399,59.653C198.191,60.181 199.718,60.994 200.978,62.089C202.236,63.188 203.209,64.59 203.891,66.299C204.575,68.008 204.917,70.044 204.917,72.407L204.917,90.955C203.293,91.419 201.331,91.881 199.024,92.346C196.718,92.811 194.286,93.044 191.724,93.044C189.503,93.044 187.465,92.841 185.607,92.441C183.75,92.041 182.159,91.396 180.836,90.51C179.512,89.625 178.477,88.455 177.729,86.999C176.982,85.543 176.61,83.759 176.61,81.649Z" style="fill:rgb(8,67,97);fill-rule:nonzero;"/>
        <path d="M212.73,59.748C214.736,59.495 216.817,59.285 218.975,59.116C221.13,58.947 223.171,58.861 225.091,58.861C230.258,58.861 234.131,59.823 236.716,61.742C239.297,63.663 240.591,66.353 240.591,69.812C240.591,71.121 240.439,72.26 240.142,73.23C239.842,74.201 239.479,75.034 239.053,75.731C238.624,76.426 238.178,76.987 237.707,77.408C237.237,77.831 236.854,78.168 236.555,78.42L243.856,92.219C243.002,92.388 242.053,92.514 241.005,92.599C239.96,92.684 238.945,92.726 237.963,92.726C236.768,92.726 235.615,92.684 234.505,92.599C233.395,92.514 232.478,92.388 231.752,92.219L224.642,77.281L225.54,76.775C227.034,75.931 228.058,75.034 228.614,74.085C229.168,73.135 229.445,72.113 229.445,71.015C229.445,69.919 229.114,69.021 228.454,68.325C227.791,67.628 226.734,67.28 225.284,67.28C224.472,67.28 223.853,67.323 223.427,67.407L223.427,92.282C222.314,92.494 221.313,92.631 220.415,92.694C219.52,92.758 218.728,92.79 218.046,92.79C217.319,92.79 216.53,92.758 215.677,92.694C214.822,92.631 213.84,92.494 212.73,92.282L212.73,59.748Z" style="fill:rgb(8,67,97);fill-rule:nonzero;"/>
        <path d="M261.98,85.193C262.365,85.193 262.919,85.151 263.646,85.066C264.371,84.983 264.904,84.898 265.247,84.813L265.247,77.851L261.597,77.851C260.101,77.851 258.844,78.168 257.816,78.8C256.794,79.433 256.281,80.32 256.281,81.46C256.281,82.303 256.472,82.968 256.855,83.454C257.242,83.939 257.722,84.307 258.299,84.56C258.874,84.813 259.493,84.983 260.156,85.066C260.816,85.151 261.424,85.193 261.98,85.193ZM246.867,81.649C246.867,79.583 247.314,77.874 248.211,76.522C249.108,75.171 250.261,74.095 251.669,73.294C253.079,72.492 254.637,71.933 256.345,71.616C258.053,71.299 259.717,71.142 261.341,71.142L265.247,71.142C265.205,70.381 264.99,69.75 264.606,69.243C264.223,68.736 263.731,68.347 263.134,68.071C262.535,67.797 261.874,67.608 261.148,67.502C260.422,67.397 259.674,67.343 258.907,67.343C257.883,67.343 256.687,67.46 255.32,67.692C253.954,67.924 252.544,68.294 251.094,68.799C250.71,68.083 250.377,67.428 250.101,66.837C249.823,66.247 249.609,65.646 249.46,65.034C249.31,64.421 249.204,63.79 249.14,63.134C249.076,62.481 249.044,61.732 249.044,60.887C251.094,60.212 253.133,59.707 255.16,59.369C257.187,59.031 259.014,58.861 260.635,58.861C262.856,58.861 264.862,59.126 266.657,59.653C268.449,60.181 269.976,60.994 271.235,62.089C272.494,63.188 273.467,64.59 274.148,66.299C274.833,68.008 275.175,70.044 275.175,72.407L275.175,90.955C273.551,91.419 271.589,91.881 269.282,92.346C266.976,92.811 264.544,93.044 261.98,93.044C259.76,93.044 257.722,92.841 255.865,92.441C254.008,92.041 252.416,91.396 251.094,90.51C249.77,89.625 248.734,88.455 247.987,86.999C247.24,85.543 246.867,83.759 246.867,81.649Z" style="fill:rgb(8,67,97);fill-rule:nonzero;"/>
        <path d="M302.394,59.622C303.161,59.454 304.102,59.327 305.212,59.242C306.321,59.158 307.304,59.116 308.158,59.116C309.268,59.116 310.388,59.158 311.521,59.242C312.65,59.327 313.558,59.454 314.241,59.622L306.301,74.813L315.138,92.219C314.37,92.388 313.408,92.514 312.257,92.599C311.104,92.684 310.1,92.726 309.247,92.726C308.135,92.726 307.036,92.684 305.947,92.599C304.86,92.514 303.994,92.388 303.354,92.219L294.836,75.255L302.394,59.622ZM282.988,59.622C283.926,59.411 284.854,59.263 285.773,59.178C286.69,59.094 287.577,59.052 288.432,59.052C289.241,59.052 290.119,59.094 291.057,59.178C291.997,59.263 292.914,59.411 293.813,59.622L293.813,92.219C292.7,92.431 291.699,92.567 290.801,92.631C289.904,92.694 289.113,92.726 288.432,92.726C287.705,92.726 286.896,92.694 285.997,92.631C285.102,92.567 284.098,92.431 282.988,92.219L282.988,59.622Z" style="fill:rgb(8,67,97);fill-rule:nonzero;"/>
        <path d="M349.017,90.828C348.291,91.081 347.426,91.335 346.422,91.587C345.419,91.84 344.351,92.084 343.22,92.314C342.089,92.546 340.925,92.726 339.73,92.852C338.535,92.979 337.361,93.044 336.207,93.044C334.031,93.044 331.937,92.874 329.931,92.537C327.925,92.199 326.163,91.513 324.647,90.479C323.132,89.446 321.927,87.946 321.028,85.984C320.133,84.022 319.684,81.396 319.684,78.105L319.684,59.622C320.623,59.411 321.552,59.263 322.47,59.178C323.389,59.094 324.273,59.052 325.129,59.052C325.939,59.052 326.814,59.094 327.754,59.178C328.692,59.263 329.611,59.411 330.508,59.622L330.508,77.218C330.508,79.751 330.934,81.481 331.788,82.408C332.642,83.336 333.945,83.801 335.695,83.801C336.422,83.801 336.976,83.78 337.361,83.737C337.745,83.695 338.022,83.654 338.192,83.61L338.192,59.622C339.133,59.411 340.062,59.263 340.979,59.178C341.897,59.094 342.782,59.052 343.637,59.052C344.448,59.052 345.323,59.094 346.264,59.178C347.202,59.263 348.121,59.411 349.017,59.622L349.017,90.828Z" style="fill:rgb(8,67,97);fill-rule:nonzero;"/>
        <path d="M370.599,58.989C372.477,58.989 374.355,59.146 376.235,59.462C378.113,59.78 379.811,60.444 381.325,61.457C382.841,62.47 384.081,63.925 385.04,65.825C386.001,67.724 386.48,70.235 386.48,73.357L386.48,92.282C385.37,92.494 384.367,92.631 383.472,92.694C382.575,92.758 381.784,92.79 381.102,92.79C380.376,92.79 379.563,92.758 378.668,92.694C377.771,92.631 376.769,92.494 375.658,92.282L375.658,74.497C375.658,72.26 375.23,70.657 374.378,69.686C373.522,68.715 372.221,68.23 370.471,68.23C370.001,68.23 369.498,68.272 368.965,68.356C368.432,68.441 368.102,68.526 367.974,68.61L367.974,92.282C366.861,92.494 365.86,92.631 364.962,92.694C364.065,92.758 363.274,92.79 362.593,92.79C361.866,92.79 361.057,92.758 360.158,92.694C359.263,92.631 358.259,92.494 357.149,92.282L357.149,61.204C358.644,60.698 360.456,60.202 362.593,59.715C364.727,59.231 367.396,58.989 370.599,58.989Z" style="fill:rgb(8,67,97);fill-rule:nonzero;"/>
        <path d="M113.099,113.312L77.007,77.642L32.149,121.977L109.468,121.977C114.043,121.977 116.334,116.51 113.099,113.312Z" style="fill:url(#_Linear1);"/>
        <path d="M32.149,33.307L58.079,48.181C60.3,49.456 61.228,52.156 60.25,54.503L32.149,121.977L32.149,33.307Z" style="fill:url(#_Linear2);"/>
        <path d="M109.468,33.307L32.149,33.307L58.079,48.181C60.3,49.456 61.228,52.156 60.25,54.503L32.149,121.977L113.099,41.972C116.334,38.775 114.043,33.307 109.468,33.307Z" style="fill:url(#_Linear3);"/>
    </g>
    <defs>
        <linearGradient id="_Linear1" x1="0" y1="0" x2="1" y2="0" gradientUnits="userSpaceOnUse" gradientTransform="matrix(58.6532,55.4612,-55.4612,58.6532,25.1469,71.9791)"><stop offset="0" style="stop-color:rgb(0,19,42);stop-opacity:1"/><stop offset="0.4" style="stop-color:rgb(1,29,51);stop-opacity:1"/><stop offset="1" style="stop-color:rgb(46,97,129);stop-opacity:1"/></linearGradient>
        <linearGradient id="_Linear2" x1="0" y1="0" x2="1" y2="0" gradientUnits="userSpaceOnUse" gradientTransform="matrix(-10.4479,61.7019,-61.7019,-10.4479,46.1595,44.5334)"><stop offset="0" style="stop-color:rgb(215,223,34);stop-opacity:1"/><stop offset="1" style="stop-color:rgb(141,199,63);stop-opacity:1"/></linearGradient>
        <linearGradient id="_Linear3" x1="0" y1="0" x2="1" y2="0" gradientUnits="userSpaceOnUse" gradientTransform="matrix(87.1829,-17.9143,17.9143,87.1829,6.42458,82.928)"><stop offset="0" style="stop-color:rgb(43,182,115);stop-opacity:1"/><stop offset="1" style="stop-color:rgb(140,198,63);stop-opacity:1"/></linearGradient>
    </defs>
</svg>
