<?xml version="1.0" encoding="UTF-8" standalone="no"?>
<!DOCTYPE svg PUBLIC "-//W3C//DTD SVG 1.1//EN" "http://www.w3.org/Graphics/SVG/1.1/DTD/svg11.dtd">
<svg width="100%" height="100%" viewBox="0 0 2071 1017" version="1.1" xmlns="http://www.w3.org/2000/svg" xmlns:xlink="http://www.w3.org/1999/xlink" xml:space="preserve" xmlns:serif="http://www.serif.com/" style="fill-rule:evenodd;clip-rule:evenodd;stroke-linejoin:round;stroke-miterlimit:1.41421;">
    <g transform="matrix(4.16667,0,0,4.16667,0,0)">
        <path d="M467.716,39.342L467.716,29.988L370.596,29.988L370.596,29.99C370.544,29.99 370.485,29.988 370.434,29.988C363.443,29.988 350.809,29.988 340.143,34.063C340.143,34.063 342.466,40.191 342.496,45.988C342.52,51.118 340.15,56.92 340.15,56.92C340.15,56.92 340.15,101.009 340.15,105.983C340.15,108.155 340.961,109.336 342.425,110.004C345.111,111.23 348.288,112.131 351.439,113.344C353.538,114.152 355.863,112.427 357.413,109.705C361.901,101.824 366.648,92.149 366.648,92.149C366.648,92.149 371.58,89.49 373.906,84.47C376.041,79.865 375.747,77.07 375.747,77.07C392.193,101.002 392.42,133.84 392.42,133.84C392.42,133.84 374.209,129.674 364.879,127.506C358.805,126.096 351.65,124.392 348.329,124.392C344,124.392 340.346,127.168 340.211,131.141C340.143,133.167 341.34,136.713 343.477,142.531C345.736,148.678 346.038,149.338 348.872,157.555L363.346,157.555L360.164,144.872C371.375,148.509 375.594,153.999 387.77,157.555L467.715,157.555L467.715,117.02C467.715,117.02 465.264,112.475 461.549,105.963L467.716,105.963L467.716,96.609L456.112,96.609C454.703,94.232 453.224,91.775 451.705,89.308L467.716,89.308L467.716,79.954L445.767,79.954C444.588,78.164 443.412,76.422 442.256,74.763C441.759,74.052 441.257,73.354 440.756,72.653L467.716,72.653L467.716,63.299L433.658,63.299C431.587,60.733 429.501,58.294 427.415,55.997L467.716,55.997L467.716,46.643L417.976,46.643C414.583,43.67 411.261,41.2 408.074,39.342L467.716,39.342ZM467.701,214.017L467.701,193.721L453.039,193.721L453.039,198.492L460.168,198.492L460.168,212.291C459.537,213.097 457.754,213.902 455.512,213.902C446.945,213.902 445.162,205.794 445.162,196.25C445.162,190.961 445.162,180.554 453.213,180.554C458.732,180.554 459.02,185.442 459.191,187.799L467.355,187.799C467.355,180.209 461.836,176.76 453.213,176.76C440.965,176.76 437.229,185.211 437.229,196.883C437.229,208.497 442.402,217.697 454.879,217.697C460.342,217.697 464.711,215.799 467.701,214.017ZM425.266,217.064L425.266,177.392L419.113,177.392L419.113,206.829L418.998,206.829L403.646,177.392L395.426,177.392L395.426,217.064L401.576,217.064L401.576,186.189L401.691,186.189L417.791,217.064L425.266,217.064ZM382.371,203.552L382.371,177.392L374.84,177.392L374.84,203.552C374.84,209.762 374.035,213.902 367.939,213.902C362.189,213.902 361.213,209.762 361.213,203.552L361.213,177.392L353.682,177.392L353.682,203.552C353.682,210.624 355.176,217.697 367.939,217.697C380.877,217.697 382.371,210.624 382.371,203.552ZM334.188,188.316C334.188,194.123 330.393,195.503 325.045,195.503L323.551,195.503L323.551,181.589L325.045,181.589C329.703,181.589 334.188,181.992 334.188,188.316ZM343.328,217.064L341.086,206.542C340.109,201.943 339.305,198.148 333.439,197.056L333.439,196.941C337.004,196.021 341.719,193.893 341.719,187.742C341.719,178.714 333.842,177.392 325.045,177.392L316.02,177.392L316.02,217.064L323.551,217.064L323.551,199.7L325.908,199.7C331.83,199.7 332.98,202.345 334.359,209.589L335.797,217.064L343.328,217.064ZM304.746,217.064L304.746,212.291L288.592,212.291L288.592,198.665L303.424,198.665L303.424,194.123L288.592,194.123L288.592,181.934L304.23,181.934L304.23,177.392L281.059,177.392L281.059,217.064L304.746,217.064ZM267.602,217.064L267.602,177.392L260.07,177.392L260.07,194.008L246.271,194.008L246.271,177.392L238.739,177.392L238.739,217.064L246.271,217.064L246.271,198.55L260.07,198.55L260.07,217.064L267.602,217.064ZM229.077,188.201C229.077,181.244 224.535,176.76 215.163,176.76C203.146,176.76 198.949,185.959 198.949,196.481C198.949,207.692 203.721,217.697 216.255,217.697C221.027,217.697 224.937,216.201 227.467,215.224L227.467,209.015C226.029,210.107 222.637,212.924 217.635,212.924C207.056,212.924 206.883,199.816 206.883,195.216C206.883,189.926 208.033,180.554 214.703,180.554C219.532,180.554 220.51,185.097 220.51,188.201L229.077,188.201ZM187.046,217.064L187.046,177.392L179.515,177.392L179.515,217.064L187.046,217.064ZM168.76,205.909C168.76,193.606 149.384,193.146 149.384,185.384C149.384,182.911 151.626,181.302 154.789,181.302C159.388,181.302 164.333,183.314 165.713,184.004L165.713,177.852C164.218,177.565 160.021,176.76 155.824,176.76C147.257,176.76 142.427,180.612 142.427,186.993C142.427,199.528 161.228,199.355 161.228,208.325C161.228,212.062 157.548,213.154 155.019,213.154C150.534,213.154 146.107,210.797 143.06,208.9L143.06,215.913C144.497,216.317 149.04,217.697 153.812,217.697C162.321,217.697 168.76,214.534 168.76,205.909ZM124.715,188.316C124.715,194.123 120.921,195.503 115.574,195.503L114.079,195.503L114.079,181.589L115.574,181.589C120.231,181.589 124.715,181.992 124.715,188.316ZM133.857,217.064L131.615,206.542C130.638,201.943 129.832,198.148 123.968,197.056L123.968,196.941C127.533,196.021 132.248,193.893 132.248,187.742C132.248,178.714 124.371,177.392 115.574,177.392L106.547,177.392L106.547,217.064L114.079,217.064L114.079,199.7L116.436,199.7C122.358,199.7 123.508,202.345 124.888,209.589L126.326,217.064L133.857,217.064ZM95.275,217.064L95.275,212.291L79.119,212.291L79.119,198.665L93.952,198.665L93.952,194.123L79.119,194.123L79.119,181.934L94.757,181.934L94.757,177.392L71.587,177.392L71.587,217.064L95.275,217.064ZM63.304,177.392L56.635,177.392L46.343,207.98L46.228,207.98L36.109,177.392L28.29,177.392L41.801,217.064L49.563,217.064L63.304,177.392ZM204.134,29.999L167.241,29.996L141.727,100.861L116.212,30.011L79.367,29.999L130.386,157.548L153.083,157.548L204.134,29.999ZM110.545,157.548L99.21,129.212L62.354,129.212L62.354,29.999L28.34,29.999L28.34,157.548L110.545,157.548ZM320.309,157.548L286.295,157.548L286.295,100.861L263.619,157.548L229.61,157.548L229.599,100.861L206.931,157.548L172.926,157.548L223.978,29.988L257.95,29.988L257.95,100.861L286.346,29.988L320.309,29.988L320.309,157.548Z" style="fill:rgb(15,170,76);fill-rule:nonzero;"/>
    </g>
</svg>
